<mxfile host="app.diagrams.net" agent="Mozilla/5.0 (Windows NT 10.0; Win64; x64) AppleWebKit/537.36 (KHTML, like Gecko) Chrome/131.0.0.0 Safari/537.36" version="26.1.0">
  <diagram name="Page-1" id="WH3OsLqiweWwLqhIPpBW">
    <mxGraphModel dx="1500" dy="746" grid="1" gridSize="10" guides="1" tooltips="1" connect="1" arrows="1" fold="1" page="1" pageScale="1" pageWidth="1378" pageHeight="1693" math="0" shadow="0">
      <root>
        <mxCell id="0" />
        <mxCell id="1" parent="0" />
        <mxCell id="L7yZvHzjzt5sgAw-UtV7-1" value="Leaderboard and Matchmaking&amp;nbsp;" style="shape=umlFrame;whiteSpace=wrap;html=1;pointerEvents=0;width=100;height=40;" vertex="1" parent="1">
          <mxGeometry x="180" y="60" width="1140" height="670" as="geometry" />
        </mxCell>
        <mxCell id="L7yZvHzjzt5sgAw-UtV7-2" value="PlayerStatData" style="swimlane;fontStyle=1;align=center;verticalAlign=top;childLayout=stackLayout;horizontal=1;startSize=26;horizontalStack=0;resizeParent=1;resizeParentMax=0;resizeLast=0;collapsible=1;marginBottom=0;whiteSpace=wrap;html=1;" vertex="1" parent="1">
          <mxGeometry x="810" y="390" width="230" height="180" as="geometry" />
        </mxCell>
        <mxCell id="L7yZvHzjzt5sgAw-UtV7-3" value="- gamesPlayed: int&lt;div&gt;- gamesWon: int&lt;/div&gt;&lt;div&gt;- winRate: int&lt;/div&gt;&lt;div&gt;- ELO: int&lt;/div&gt;&lt;div&gt;- ranking: int&lt;/div&gt;&lt;div&gt;- Matchistory: list[MatchData]&lt;/div&gt;" style="text;strokeColor=none;fillColor=none;align=left;verticalAlign=top;spacingLeft=4;spacingRight=4;overflow=hidden;rotatable=0;points=[[0,0.5],[1,0.5]];portConstraint=eastwest;whiteSpace=wrap;html=1;" vertex="1" parent="L7yZvHzjzt5sgAw-UtV7-2">
          <mxGeometry y="26" width="230" height="104" as="geometry" />
        </mxCell>
        <mxCell id="L7yZvHzjzt5sgAw-UtV7-4" value="" style="line;strokeWidth=1;fillColor=none;align=left;verticalAlign=middle;spacingTop=-1;spacingLeft=3;spacingRight=3;rotatable=0;labelPosition=right;points=[];portConstraint=eastwest;strokeColor=inherit;" vertex="1" parent="L7yZvHzjzt5sgAw-UtV7-2">
          <mxGeometry y="130" width="230" height="8" as="geometry" />
        </mxCell>
        <mxCell id="L7yZvHzjzt5sgAw-UtV7-5" value="&lt;div&gt;+ PlayerStatData()&lt;/div&gt;+ UpdateMatchhistory(MatchData): void" style="text;strokeColor=none;fillColor=none;align=left;verticalAlign=top;spacingLeft=4;spacingRight=4;overflow=hidden;rotatable=0;points=[[0,0.5],[1,0.5]];portConstraint=eastwest;whiteSpace=wrap;html=1;" vertex="1" parent="L7yZvHzjzt5sgAw-UtV7-2">
          <mxGeometry y="138" width="230" height="42" as="geometry" />
        </mxCell>
        <mxCell id="L7yZvHzjzt5sgAw-UtV7-6" value="PlayerStatDatabase" style="swimlane;fontStyle=1;align=center;verticalAlign=top;childLayout=stackLayout;horizontal=1;startSize=26;horizontalStack=0;resizeParent=1;resizeParentMax=0;resizeLast=0;collapsible=1;marginBottom=0;whiteSpace=wrap;html=1;" vertex="1" parent="1">
          <mxGeometry x="570" y="430" width="200" height="130" as="geometry" />
        </mxCell>
        <mxCell id="L7yZvHzjzt5sgAw-UtV7-7" value="- playersStats: Map&amp;lt;Profile playerProfile, PlayerStatData playerStats&amp;gt;" style="text;strokeColor=none;fillColor=none;align=left;verticalAlign=top;spacingLeft=4;spacingRight=4;overflow=hidden;rotatable=0;points=[[0,0.5],[1,0.5]];portConstraint=eastwest;whiteSpace=wrap;html=1;" vertex="1" parent="L7yZvHzjzt5sgAw-UtV7-6">
          <mxGeometry y="26" width="200" height="54" as="geometry" />
        </mxCell>
        <mxCell id="L7yZvHzjzt5sgAw-UtV7-8" value="" style="line;strokeWidth=1;fillColor=none;align=left;verticalAlign=middle;spacingTop=-1;spacingLeft=3;spacingRight=3;rotatable=0;labelPosition=right;points=[];portConstraint=eastwest;strokeColor=inherit;" vertex="1" parent="L7yZvHzjzt5sgAw-UtV7-6">
          <mxGeometry y="80" width="200" height="8" as="geometry" />
        </mxCell>
        <mxCell id="L7yZvHzjzt5sgAw-UtV7-9" value="+ getPlayerStats(Profile playerProfile): PlayerStatData" style="text;strokeColor=none;fillColor=none;align=left;verticalAlign=top;spacingLeft=4;spacingRight=4;overflow=hidden;rotatable=0;points=[[0,0.5],[1,0.5]];portConstraint=eastwest;whiteSpace=wrap;html=1;" vertex="1" parent="L7yZvHzjzt5sgAw-UtV7-6">
          <mxGeometry y="88" width="200" height="42" as="geometry" />
        </mxCell>
        <mxCell id="L7yZvHzjzt5sgAw-UtV7-14" value="PlayerStats" style="swimlane;fontStyle=1;align=center;verticalAlign=top;childLayout=stackLayout;horizontal=1;startSize=26;horizontalStack=0;resizeParent=1;resizeParentMax=0;resizeLast=0;collapsible=1;marginBottom=0;whiteSpace=wrap;html=1;" vertex="1" parent="1">
          <mxGeometry x="280" y="352" width="250" height="130" as="geometry" />
        </mxCell>
        <mxCell id="L7yZvHzjzt5sgAw-UtV7-15" value="+ field: type" style="text;strokeColor=none;fillColor=none;align=left;verticalAlign=top;spacingLeft=4;spacingRight=4;overflow=hidden;rotatable=0;points=[[0,0.5],[1,0.5]];portConstraint=eastwest;whiteSpace=wrap;html=1;" vertex="1" parent="L7yZvHzjzt5sgAw-UtV7-14">
          <mxGeometry y="26" width="250" height="26" as="geometry" />
        </mxCell>
        <mxCell id="L7yZvHzjzt5sgAw-UtV7-16" value="" style="line;strokeWidth=1;fillColor=none;align=left;verticalAlign=middle;spacingTop=-1;spacingLeft=3;spacingRight=3;rotatable=0;labelPosition=right;points=[];portConstraint=eastwest;strokeColor=inherit;" vertex="1" parent="L7yZvHzjzt5sgAw-UtV7-14">
          <mxGeometry y="52" width="250" height="8" as="geometry" />
        </mxCell>
        <mxCell id="L7yZvHzjzt5sgAw-UtV7-17" value="+ updateplayerStats(Profile player1, Profile player2, Boolean player1Won, int turns, int time): void&lt;div&gt;+ updateLeaderboard(Profile, player profile):&lt;/div&gt;" style="text;strokeColor=none;fillColor=none;align=left;verticalAlign=top;spacingLeft=4;spacingRight=4;overflow=hidden;rotatable=0;points=[[0,0.5],[1,0.5]];portConstraint=eastwest;whiteSpace=wrap;html=1;" vertex="1" parent="L7yZvHzjzt5sgAw-UtV7-14">
          <mxGeometry y="60" width="250" height="70" as="geometry" />
        </mxCell>
        <mxCell id="L7yZvHzjzt5sgAw-UtV7-18" value="MatchmakingLogic" style="swimlane;fontStyle=1;align=center;verticalAlign=top;childLayout=stackLayout;horizontal=1;startSize=26;horizontalStack=0;resizeParent=1;resizeParentMax=0;resizeLast=0;collapsible=1;marginBottom=0;whiteSpace=wrap;html=1;" vertex="1" parent="1">
          <mxGeometry x="280" y="160" width="230" height="150" as="geometry" />
        </mxCell>
        <mxCell id="L7yZvHzjzt5sgAw-UtV7-19" value="- playerInQueue: Map&amp;lt;String gametype Profile playerprofile&amp;gt;" style="text;strokeColor=none;fillColor=none;align=left;verticalAlign=top;spacingLeft=4;spacingRight=4;overflow=hidden;rotatable=0;points=[[0,0.5],[1,0.5]];portConstraint=eastwest;whiteSpace=wrap;html=1;" vertex="1" parent="L7yZvHzjzt5sgAw-UtV7-18">
          <mxGeometry y="26" width="230" height="44" as="geometry" />
        </mxCell>
        <mxCell id="L7yZvHzjzt5sgAw-UtV7-20" value="" style="line;strokeWidth=1;fillColor=none;align=left;verticalAlign=middle;spacingTop=-1;spacingLeft=3;spacingRight=3;rotatable=0;labelPosition=right;points=[];portConstraint=eastwest;strokeColor=inherit;" vertex="1" parent="L7yZvHzjzt5sgAw-UtV7-18">
          <mxGeometry y="70" width="230" height="8" as="geometry" />
        </mxCell>
        <mxCell id="L7yZvHzjzt5sgAw-UtV7-21" value="+ matchPlayer(String gametype, Profile playerprofile): void&lt;div&gt;+ frindlyMatch(String gametype, Profile player1, Profile, player2): void&lt;/div&gt;" style="text;strokeColor=none;fillColor=none;align=left;verticalAlign=top;spacingLeft=4;spacingRight=4;overflow=hidden;rotatable=0;points=[[0,0.5],[1,0.5]];portConstraint=eastwest;whiteSpace=wrap;html=1;" vertex="1" parent="L7yZvHzjzt5sgAw-UtV7-18">
          <mxGeometry y="78" width="230" height="72" as="geometry" />
        </mxCell>
        <mxCell id="L7yZvHzjzt5sgAw-UtV7-26" value="LeaderboardData" style="swimlane;fontStyle=1;align=center;verticalAlign=top;childLayout=stackLayout;horizontal=1;startSize=26;horizontalStack=0;resizeParent=1;resizeParentMax=0;resizeLast=0;collapsible=1;marginBottom=0;whiteSpace=wrap;html=1;" vertex="1" parent="1">
          <mxGeometry x="910" y="160" width="210" height="90" as="geometry" />
        </mxCell>
        <mxCell id="L7yZvHzjzt5sgAw-UtV7-27" value="- ranking: List [Profile]" style="text;strokeColor=none;fillColor=none;align=left;verticalAlign=top;spacingLeft=4;spacingRight=4;overflow=hidden;rotatable=0;points=[[0,0.5],[1,0.5]];portConstraint=eastwest;whiteSpace=wrap;html=1;" vertex="1" parent="L7yZvHzjzt5sgAw-UtV7-26">
          <mxGeometry y="26" width="210" height="26" as="geometry" />
        </mxCell>
        <mxCell id="L7yZvHzjzt5sgAw-UtV7-28" value="" style="line;strokeWidth=1;fillColor=none;align=left;verticalAlign=middle;spacingTop=-1;spacingLeft=3;spacingRight=3;rotatable=0;labelPosition=right;points=[];portConstraint=eastwest;strokeColor=inherit;" vertex="1" parent="L7yZvHzjzt5sgAw-UtV7-26">
          <mxGeometry y="52" width="210" height="8" as="geometry" />
        </mxCell>
        <mxCell id="L7yZvHzjzt5sgAw-UtV7-29" value="&lt;div&gt;+ addData(Profile, playerProfile): void&lt;/div&gt;" style="text;strokeColor=none;fillColor=none;align=left;verticalAlign=top;spacingLeft=4;spacingRight=4;overflow=hidden;rotatable=0;points=[[0,0.5],[1,0.5]];portConstraint=eastwest;whiteSpace=wrap;html=1;" vertex="1" parent="L7yZvHzjzt5sgAw-UtV7-26">
          <mxGeometry y="60" width="210" height="30" as="geometry" />
        </mxCell>
        <mxCell id="L7yZvHzjzt5sgAw-UtV7-30" value="LeaderboardDatabase" style="swimlane;fontStyle=1;align=center;verticalAlign=top;childLayout=stackLayout;horizontal=1;startSize=26;horizontalStack=0;resizeParent=1;resizeParentMax=0;resizeLast=0;collapsible=1;marginBottom=0;whiteSpace=wrap;html=1;" vertex="1" parent="1">
          <mxGeometry x="660" y="150" width="220" height="122" as="geometry" />
        </mxCell>
        <mxCell id="L7yZvHzjzt5sgAw-UtV7-31" value="- leaderboards: Map&amp;lt;String gameType, leaderboardData leaderboard)&amp;nbsp;" style="text;strokeColor=none;fillColor=none;align=left;verticalAlign=top;spacingLeft=4;spacingRight=4;overflow=hidden;rotatable=0;points=[[0,0.5],[1,0.5]];portConstraint=eastwest;whiteSpace=wrap;html=1;" vertex="1" parent="L7yZvHzjzt5sgAw-UtV7-30">
          <mxGeometry y="26" width="220" height="44" as="geometry" />
        </mxCell>
        <mxCell id="L7yZvHzjzt5sgAw-UtV7-32" value="" style="line;strokeWidth=1;fillColor=none;align=left;verticalAlign=middle;spacingTop=-1;spacingLeft=3;spacingRight=3;rotatable=0;labelPosition=right;points=[];portConstraint=eastwest;strokeColor=inherit;" vertex="1" parent="L7yZvHzjzt5sgAw-UtV7-30">
          <mxGeometry y="70" width="220" height="8" as="geometry" />
        </mxCell>
        <mxCell id="L7yZvHzjzt5sgAw-UtV7-33" value="+ getGameLeaderboard(String gameType): LeaderboardData" style="text;strokeColor=none;fillColor=none;align=left;verticalAlign=top;spacingLeft=4;spacingRight=4;overflow=hidden;rotatable=0;points=[[0,0.5],[1,0.5]];portConstraint=eastwest;whiteSpace=wrap;html=1;" vertex="1" parent="L7yZvHzjzt5sgAw-UtV7-30">
          <mxGeometry y="78" width="220" height="44" as="geometry" />
        </mxCell>
        <mxCell id="L7yZvHzjzt5sgAw-UtV7-41" value="MatchData" style="swimlane;fontStyle=1;align=center;verticalAlign=top;childLayout=stackLayout;horizontal=1;startSize=26;horizontalStack=0;resizeParent=1;resizeParentMax=0;resizeLast=0;collapsible=1;marginBottom=0;whiteSpace=wrap;html=1;" vertex="1" parent="1">
          <mxGeometry x="1090" y="418" width="180" height="170" as="geometry" />
        </mxCell>
        <mxCell id="L7yZvHzjzt5sgAw-UtV7-42" value="- player: Profile&lt;div&gt;- opponent: Profile&lt;/div&gt;&lt;div&gt;- won: Boolean&lt;/div&gt;&lt;div&gt;- time: int&lt;/div&gt;&lt;div&gt;- turns: int&lt;/div&gt;" style="text;strokeColor=none;fillColor=none;align=left;verticalAlign=top;spacingLeft=4;spacingRight=4;overflow=hidden;rotatable=0;points=[[0,0.5],[1,0.5]];portConstraint=eastwest;whiteSpace=wrap;html=1;" vertex="1" parent="L7yZvHzjzt5sgAw-UtV7-41">
          <mxGeometry y="26" width="180" height="84" as="geometry" />
        </mxCell>
        <mxCell id="L7yZvHzjzt5sgAw-UtV7-43" value="" style="line;strokeWidth=1;fillColor=none;align=left;verticalAlign=middle;spacingTop=-1;spacingLeft=3;spacingRight=3;rotatable=0;labelPosition=right;points=[];portConstraint=eastwest;strokeColor=inherit;" vertex="1" parent="L7yZvHzjzt5sgAw-UtV7-41">
          <mxGeometry y="110" width="180" height="8" as="geometry" />
        </mxCell>
        <mxCell id="L7yZvHzjzt5sgAw-UtV7-44" value="+ MatchData(Profile player, Profile opponent, Boolean won, int time, int turns)" style="text;strokeColor=none;fillColor=none;align=left;verticalAlign=top;spacingLeft=4;spacingRight=4;overflow=hidden;rotatable=0;points=[[0,0.5],[1,0.5]];portConstraint=eastwest;whiteSpace=wrap;html=1;" vertex="1" parent="L7yZvHzjzt5sgAw-UtV7-41">
          <mxGeometry y="118" width="180" height="52" as="geometry" />
        </mxCell>
      </root>
    </mxGraphModel>
  </diagram>
</mxfile>
